<svg width="72" height="72" viewBox="0 0 72 72" fill="none" xmlns="http://www.w3.org/2000/svg">
<circle cx="36" cy="36" r="36" fill="black"/>
<rect x="7.875" y="21.9375" width="28.125" height="28.125" rx="2" fill="#BDBDBD"/>
<path d="M21.9375 38C21.9375 36.8954 22.8329 36 23.9375 36H48.0625C49.1671 36 50.0625 36.8954 50.0625 38V62.125C50.0625 63.2296 49.1671 64.125 48.0625 64.125H23.9375C22.8329 64.125 21.9375 63.2296 21.9375 62.125V38Z" fill="white"/>
<path d="M21.9375 9.875C21.9375 8.77043 22.8329 7.875 23.9375 7.875H48.0625C49.1671 7.875 50.0625 8.77043 50.0625 9.875V34C50.0625 35.1046 49.1671 36 48.0625 36H23.9375C22.8329 36 21.9375 35.1046 21.9375 34V9.875Z" fill="#7B7B7B"/>
<path d="M8 24C8 22.8954 8.89543 22 10 22H34C35.1046 22 36 22.8954 36 24V36H8V24Z" fill="#BDBDBD"/>
<rect x="36" y="21.9375" width="28.125" height="28.125" rx="2" fill="#393939"/>
<path d="M36 8H48C49.1046 8 50 8.89543 50 10V34C50 35.1046 49.1046 36 48 36H36V8Z" fill="#7B7B7B"/>
</svg>
