<svg width="129" height="33" viewBox="0 0 129 33" fill="none" xmlns="http://www.w3.org/2000/svg">
<path d="M45.5493 25V10.284C45.5493 9.14 45.87 8.23 46.5113 7.554C47.1526 6.878 48.158 6.54 49.5273 6.54H51.9713V8.802H49.8913C49.354 8.802 48.9553 8.94933 48.6953 9.244C48.4353 9.52133 48.3053 9.92 48.3053 10.44V25H45.5493ZM43.6253 13.586V11.35H51.7633V13.586H43.6253ZM54.1238 25V11.168H56.6458L56.7498 14.834L56.5158 14.756C56.7065 13.508 57.0878 12.598 57.6598 12.026C58.2492 11.454 59.0378 11.168 60.0258 11.168H61.3518V13.638H60.0258C59.3325 13.638 58.7518 13.7507 58.2838 13.976C57.8158 14.2013 57.4605 14.548 57.2178 15.016C56.9925 15.484 56.8798 16.0907 56.8798 16.836V25H54.1238ZM67.24 25.312C65.8013 25.312 64.6487 24.9827 63.782 24.324C62.9327 23.6653 62.508 22.738 62.508 21.542C62.508 20.346 62.8633 19.4187 63.574 18.76C64.302 18.084 65.42 17.5987 66.928 17.304L71.686 16.394C71.686 15.3193 71.4347 14.522 70.932 14.002C70.4293 13.4647 69.684 13.196 68.696 13.196C67.812 13.196 67.1187 13.3953 66.616 13.794C66.1133 14.1753 65.7667 14.7473 65.576 15.51L62.742 15.328C63.002 13.9413 63.6433 12.8493 64.666 12.052C65.706 11.2547 67.0493 10.856 68.696 10.856C70.568 10.856 71.9893 11.3587 72.96 12.364C73.948 13.352 74.442 14.7473 74.442 16.55V21.932C74.442 22.2613 74.494 22.4953 74.598 22.634C74.7193 22.7553 74.91 22.816 75.17 22.816H75.664V25C75.5774 25.0173 75.4387 25.0347 75.248 25.052C75.0573 25.0693 74.858 25.078 74.65 25.078C74.0607 25.078 73.5493 24.9827 73.116 24.792C72.7 24.6013 72.388 24.2893 72.18 23.856C71.972 23.4053 71.868 22.8073 71.868 22.062L72.154 22.192C72.0153 22.7987 71.712 23.336 71.244 23.804C70.7933 24.272 70.2127 24.6447 69.502 24.922C68.8087 25.182 68.0547 25.312 67.24 25.312ZM67.682 23.128C68.514 23.128 69.2247 22.972 69.814 22.66C70.4033 22.3307 70.8627 21.88 71.192 21.308C71.5213 20.736 71.686 20.086 71.686 19.358V18.474L67.63 19.254C66.798 19.41 66.2087 19.6613 65.862 20.008C65.5327 20.3373 65.368 20.762 65.368 21.282C65.368 21.8713 65.5673 22.3307 65.966 22.66C66.382 22.972 66.954 23.128 67.682 23.128ZM77.991 25V11.168H80.513L80.617 14.86L80.279 14.678C80.435 13.7767 80.7297 13.0487 81.163 12.494C81.5963 11.9393 82.125 11.532 82.749 11.272C83.373 10.9947 84.049 10.856 84.777 10.856C85.817 10.856 86.675 11.09 87.351 11.558C88.0443 12.0087 88.5643 12.6327 88.911 13.43C89.275 14.21 89.457 15.1027 89.457 16.108V25H86.701V16.94C86.701 16.1253 86.6143 15.4407 86.441 14.886C86.2677 14.3313 85.9817 13.9067 85.583 13.612C85.1843 13.3173 84.6643 13.17 84.023 13.17C83.0523 13.17 82.2637 13.4907 81.657 14.132C81.0503 14.7733 80.747 15.7093 80.747 16.94V25H77.991ZM93.0984 25V6.54H95.8544V18.006L102.068 11.168H105.552L100.144 16.992L105.76 25H102.588L98.2984 18.708L95.8544 21.308V25H93.0984ZM113.164 25.312C111.846 25.312 110.694 25.0173 109.706 24.428C108.718 23.8387 107.955 22.998 107.418 21.906C106.88 20.814 106.612 19.54 106.612 18.084C106.612 16.6107 106.88 15.3367 107.418 14.262C107.955 13.1873 108.718 12.3553 109.706 11.766C110.694 11.1593 111.846 10.856 113.164 10.856C114.481 10.856 115.634 11.1593 116.622 11.766C117.61 12.3553 118.372 13.1873 118.91 14.262C119.447 15.3367 119.716 16.6107 119.716 18.084C119.716 19.54 119.447 20.814 118.91 21.906C118.372 22.998 117.61 23.8387 116.622 24.428C115.634 25.0173 114.481 25.312 113.164 25.312ZM113.164 22.92C114.342 22.92 115.252 22.4953 115.894 21.646C116.535 20.7793 116.856 19.592 116.856 18.084C116.856 16.576 116.535 15.3973 115.894 14.548C115.252 13.6813 114.342 13.248 113.164 13.248C112.002 13.248 111.092 13.6813 110.434 14.548C109.792 15.3973 109.472 16.576 109.472 18.084C109.472 19.592 109.792 20.7793 110.434 21.646C111.092 22.4953 112.002 22.92 113.164 22.92Z" fill="white"/>
<path d="M17.9914 0.0227511C26.8232 0.0101694 33.993 7.15955 34.0055 15.9913C34.0181 24.8231 26.8687 31.9929 18.0369 32.0055C9.20515 32.0181 2.03536 24.8687 2.02278 16.0369C2.0102 7.20512 9.15958 0.0353328 17.9914 0.0227511Z" fill="#E4F222"/>
<path d="M4.32898 31.8304L6.27826 25.1686L10.8516 29.4566L4.32898 31.8304Z" fill="#E4F222"/>
<path d="M20.4049 10.4138L10.8101 10.4275Z" fill="#E4F222"/>
<path d="M20.4049 10.4138L10.8101 10.4275" stroke="#1F1F1F" stroke-width="3" stroke-linecap="round" stroke-linejoin="round"/>
<path d="M26.0109 16.8023L10.8191 16.824Z" fill="#E4F222"/>
<path d="M26.0109 16.8023L10.8191 16.824" stroke="#1F1F1F" stroke-width="3" stroke-linecap="round" stroke-linejoin="round"/>
<path d="M15.6255 23.2137L10.8281 23.2206Z" fill="#E4F222"/>
<path d="M15.6255 23.2137L10.8281 23.2206" stroke="#1F1F1F" stroke-width="3" stroke-linecap="round" stroke-linejoin="round"/>
</svg>
