<svg width="646" height="138" viewBox="0 0 646 138" fill="none" xmlns="http://www.w3.org/2000/svg">
<path d="M47.5958 32.1C47.5958 22.62 49.8758 15.6 54.4358 11.04C58.9958 6.47999 66.0758 4.19999 75.6758 4.19999H104.296V20.76H77.4758C73.8758 20.76 71.1758 21.72 69.3758 23.64C67.6958 25.56 66.8558 28.44 66.8558 32.28V132H47.5958V32.1ZM20.0558 35.88H103.216V52.44H20.0558V35.88ZM155.345 35.88H169.205L170.825 60H169.385C170.465 51.96 173.045 45.96 177.125 42C181.205 37.92 186.725 35.88 193.685 35.88H214.745V52.98H195.125C190.565 52.98 186.725 53.82 183.605 55.5C180.605 57.18 178.325 59.7 176.765 63.06C175.325 66.3 174.605 70.32 174.605 75.12V132H155.345V35.88ZM131.585 115.44H203.945V132H131.585V115.44ZM131.585 35.88H165.425V52.44H131.585V35.88ZM265.435 134.16C259.555 134.16 254.095 133.08 249.055 130.92C244.135 128.64 240.235 125.46 237.355 121.38C234.475 117.18 233.035 112.44 233.035 107.16C233.035 99.36 235.495 93.12 240.415 88.44C245.335 83.76 252.655 80.46 262.375 78.54L292.975 72.24C292.975 65.16 291.415 59.94 288.295 56.58C285.295 53.1 280.735 51.36 274.615 51.36C268.975 51.36 264.535 52.62 261.295 55.14C258.055 57.54 255.835 61.14 254.635 65.94L234.655 64.68C236.455 55.2 240.835 47.7 247.795 42.18C254.875 36.54 263.815 33.72 274.615 33.72C286.735 33.72 296.035 37.2 302.515 44.16C308.995 51.12 312.235 60.84 312.235 73.32V109.14C312.235 111.42 312.715 113.04 313.675 114C314.635 114.96 316.195 115.44 318.355 115.44H323.755V132C321.475 132.48 318.655 132.72 315.295 132.72C308.335 132.72 303.115 130.98 299.635 127.5C296.275 123.9 294.475 118.56 294.235 111.48H296.935C295.975 118.08 292.495 123.54 286.495 127.86C280.615 132.06 273.595 134.16 265.435 134.16ZM267.955 117.6C273.115 117.6 277.555 116.7 281.275 114.9C285.115 112.98 287.995 110.34 289.915 106.98C291.955 103.5 292.975 99.36 292.975 94.56V87.54L267.235 92.76C262.315 93.72 258.715 95.22 256.435 97.26C254.275 99.3 253.195 102.12 253.195 105.72C253.195 109.44 254.455 112.38 256.975 114.54C259.615 116.58 263.275 117.6 267.955 117.6ZM348.705 35.88H366.165L366.885 61.62L364.545 60.36C366.225 51.48 369.765 44.82 375.165 40.38C380.685 35.94 387.345 33.72 395.145 33.72C405.225 33.72 412.905 37.02 418.185 43.62C423.465 50.22 426.105 58.98 426.105 69.9V132H406.845V75.12C406.845 66.72 405.465 60.48 402.705 56.4C400.065 52.32 395.625 50.28 389.385 50.28C383.025 50.28 377.865 52.56 373.905 57.12C369.945 61.56 367.965 67.8 367.965 75.84V132H348.705V35.88ZM454.295 4.19999H473.555V82.14L515.135 35.88H539.255L501.635 76.74L540.875 132H517.475L488.855 89.88L473.555 106.44V132H454.295V4.19999Z" fill="black"/>
<circle cx="596" cy="82" r="50" fill="black"/>
<rect x="556" y="62" width="40" height="40" rx="2" fill="#BDBDBD"/>
<path d="M576 84C576 82.8954 576.895 82 578 82H614C615.105 82 616 82.8954 616 84V120C616 121.105 615.105 122 614 122H578C576.895 122 576 121.105 576 120V84Z" fill="white"/>
<path d="M576 44C576 42.8954 576.895 42 578 42H614C615.105 42 616 42.8954 616 44V80C616 81.1046 615.105 82 614 82H578C576.895 82 576 81.1046 576 80V44Z" fill="#7B7B7B"/>
<path d="M556 64C556 62.8954 556.895 62 558 62H594C595.105 62 596 62.8954 596 64V82H556V64Z" fill="#BDBDBD"/>
<rect x="596" y="62" width="40" height="40" rx="2" fill="#393939"/>
<path d="M596 42H614C615.105 42 616 42.8954 616 44V80C616 81.1046 615.105 82 614 82H596V42Z" fill="#7B7B7B"/>
</svg>
