<svg width="114" height="22" viewBox="0 0 114 22" fill="none" xmlns="http://www.w3.org/2000/svg">
<path d="M11.5493 20V5.284C11.5493 4.14 11.87 3.23 12.5113 2.554C13.1526 1.878 14.158 1.54 15.5273 1.54H17.9713V3.802H15.8913C15.354 3.802 14.9553 3.94933 14.6953 4.244C14.4353 4.52133 14.3053 4.92 14.3053 5.44V20H11.5493ZM9.62531 8.586V6.35H17.7633V8.586H9.62531ZM20.1238 20V6.168H22.6458L22.7498 9.834L22.5158 9.756C22.7065 8.508 23.0878 7.598 23.6598 7.026C24.2492 6.454 25.0378 6.168 26.0258 6.168H27.3518V8.638H26.0258C25.3325 8.638 24.7518 8.75067 24.2838 8.976C23.8158 9.20133 23.4605 9.548 23.2178 10.016C22.9925 10.484 22.8798 11.0907 22.8798 11.836V20H20.1238ZM33.24 20.312C31.8013 20.312 30.6487 19.9827 29.782 19.324C28.9327 18.6653 28.508 17.738 28.508 16.542C28.508 15.346 28.8633 14.4187 29.574 13.76C30.302 13.084 31.42 12.5987 32.928 12.304L37.686 11.394C37.686 10.3193 37.4347 9.522 36.932 9.002C36.4293 8.46467 35.684 8.196 34.696 8.196C33.812 8.196 33.1187 8.39533 32.616 8.794C32.1133 9.17533 31.7667 9.74733 31.576 10.51L28.742 10.328C29.002 8.94133 29.6433 7.84933 30.666 7.052C31.706 6.25467 33.0493 5.856 34.696 5.856C36.568 5.856 37.9893 6.35867 38.96 7.364C39.948 8.352 40.442 9.74733 40.442 11.55V16.932C40.442 17.2613 40.494 17.4953 40.598 17.634C40.7193 17.7553 40.91 17.816 41.17 17.816H41.664V20C41.5774 20.0173 41.4387 20.0347 41.248 20.052C41.0573 20.0693 40.858 20.078 40.65 20.078C40.0607 20.078 39.5493 19.9827 39.116 19.792C38.7 19.6013 38.388 19.2893 38.18 18.856C37.972 18.4053 37.868 17.8073 37.868 17.062L38.154 17.192C38.0153 17.7987 37.712 18.336 37.244 18.804C36.7933 19.272 36.2127 19.6447 35.502 19.922C34.8087 20.182 34.0547 20.312 33.24 20.312ZM33.682 18.128C34.514 18.128 35.2247 17.972 35.814 17.66C36.4033 17.3307 36.8627 16.88 37.192 16.308C37.5213 15.736 37.686 15.086 37.686 14.358V13.474L33.63 14.254C32.798 14.41 32.2087 14.6613 31.862 15.008C31.5327 15.3373 31.368 15.762 31.368 16.282C31.368 16.8713 31.5673 17.3307 31.966 17.66C32.382 17.972 32.954 18.128 33.682 18.128ZM43.991 20V6.168H46.513L46.617 9.86L46.279 9.678C46.435 8.77667 46.7297 8.04867 47.163 7.494C47.5963 6.93933 48.125 6.532 48.749 6.272C49.373 5.99467 50.049 5.856 50.777 5.856C51.817 5.856 52.675 6.09 53.351 6.558C54.0443 7.00867 54.5643 7.63267 54.911 8.43C55.275 9.21 55.457 10.1027 55.457 11.108V20H52.701V11.94C52.701 11.1253 52.6143 10.4407 52.441 9.886C52.2677 9.33133 51.9817 8.90667 51.583 8.612C51.1843 8.31733 50.6643 8.17 50.023 8.17C49.0523 8.17 48.2637 8.49067 47.657 9.132C47.0503 9.77333 46.747 10.7093 46.747 11.94V20H43.991ZM59.0984 20V1.54H61.8544V13.006L68.0684 6.168H71.5524L66.1444 11.992L71.7604 20H68.5884L64.2984 13.708L61.8544 16.308V20H59.0984ZM79.1635 20.312C77.8462 20.312 76.6935 20.0173 75.7055 19.428C74.7175 18.8387 73.9549 17.998 73.4175 16.906C72.8802 15.814 72.6115 14.54 72.6115 13.084C72.6115 11.6107 72.8802 10.3367 73.4175 9.262C73.9549 8.18733 74.7175 7.35533 75.7055 6.766C76.6935 6.15933 77.8462 5.856 79.1635 5.856C80.4809 5.856 81.6335 6.15933 82.6215 6.766C83.6095 7.35533 84.3722 8.18733 84.9095 9.262C85.4469 10.3367 85.7155 11.6107 85.7155 13.084C85.7155 14.54 85.4469 15.814 84.9095 16.906C84.3722 17.998 83.6095 18.8387 82.6215 19.428C81.6335 20.0173 80.4809 20.312 79.1635 20.312ZM79.1635 17.92C80.3422 17.92 81.2522 17.4953 81.8935 16.646C82.5349 15.7793 82.8555 14.592 82.8555 13.084C82.8555 11.576 82.5349 10.3973 81.8935 9.548C81.2522 8.68133 80.3422 8.248 79.1635 8.248C78.0022 8.248 77.0922 8.68133 76.4335 9.548C75.7922 10.3973 75.4715 11.576 75.4715 13.084C75.4715 14.592 75.7922 15.7793 76.4335 16.646C77.0922 17.4953 78.0022 17.92 79.1635 17.92Z" fill="#0C0A08"/>
<path d="M103.485 1.01485C109.276 1.0066 113.977 5.69423 113.985 11.485C113.993 17.2757 109.306 21.9767 103.515 21.985C97.7242 21.9932 93.0232 17.3056 93.0149 11.5148C93.0067 5.72411 97.6943 1.0231 103.485 1.01485Z" fill="#0C0A08"/>
<path d="M94.527 21.8702L95.8051 17.5022L98.8037 20.3137L94.527 21.8702Z" fill="#0C0A08"/>
<path d="M105.068 7.82807L98.7765 7.83704Z" fill="#E4F222"/>
<path d="M105.068 7.82807L98.7765 7.83704" stroke="white" stroke-width="2" stroke-linecap="round" stroke-linejoin="round"/>
<path d="M108.743 12.0167L98.7824 12.0309Z" fill="#E4F222"/>
<path d="M108.743 12.0167L98.7824 12.0309" stroke="white" stroke-width="2" stroke-linecap="round" stroke-linejoin="round"/>
<path d="M101.934 16.2206L98.7883 16.2251Z" fill="#E4F222"/>
<path d="M101.934 16.2206L98.7883 16.2251" stroke="white" stroke-width="2" stroke-linecap="round" stroke-linejoin="round"/>
</svg>
