<svg width="79" height="20" viewBox="0 0 79 20" fill="none" xmlns="http://www.w3.org/2000/svg">
<path d="M3.45556 19V4.284C3.45556 3.14 3.77623 2.23 4.41756 1.554C5.0589 0.877999 6.06423 0.539999 7.43356 0.539999H9.87756V2.802H7.79756C7.26023 2.802 6.86156 2.94933 6.60156 3.244C6.34156 3.52133 6.21156 3.92 6.21156 4.44V19H3.45556ZM1.53156 7.586V5.35H9.66956V7.586H1.53156ZM12.0301 19V5.168H14.5521L14.6561 8.834L14.4221 8.756C14.6127 7.508 14.9941 6.598 15.5661 6.026C16.1554 5.454 16.9441 5.168 17.9321 5.168H19.2581V7.638H17.9321C17.2387 7.638 16.6581 7.75067 16.1901 7.976C15.7221 8.20133 15.3667 8.548 15.1241 9.016C14.8987 9.484 14.7861 10.0907 14.7861 10.836V19H12.0301ZM25.1463 19.312C23.7076 19.312 22.5549 18.9827 21.6883 18.324C20.8389 17.6653 20.4143 16.738 20.4143 15.542C20.4143 14.346 20.7696 13.4187 21.4803 12.76C22.2083 12.084 23.3263 11.5987 24.8343 11.304L29.5923 10.394C29.5923 9.31933 29.3409 8.522 28.8383 8.002C28.3356 7.46467 27.5903 7.196 26.6023 7.196C25.7183 7.196 25.0249 7.39533 24.5223 7.794C24.0196 8.17533 23.6729 8.74733 23.4823 9.51L20.6483 9.328C20.9083 7.94133 21.5496 6.84933 22.5723 6.052C23.6123 5.25467 24.9556 4.856 26.6023 4.856C28.4743 4.856 29.8956 5.35867 30.8663 6.364C31.8543 7.352 32.3483 8.74733 32.3483 10.55V15.932C32.3483 16.2613 32.4003 16.4953 32.5043 16.634C32.6256 16.7553 32.8163 16.816 33.0763 16.816H33.5703V19C33.4836 19.0173 33.3449 19.0347 33.1543 19.052C32.9636 19.0693 32.7643 19.078 32.5563 19.078C31.9669 19.078 31.4556 18.9827 31.0223 18.792C30.6063 18.6013 30.2943 18.2893 30.0863 17.856C29.8783 17.4053 29.7743 16.8073 29.7743 16.062L30.0603 16.192C29.9216 16.7987 29.6183 17.336 29.1503 17.804C28.6996 18.272 28.1189 18.6447 27.4083 18.922C26.7149 19.182 25.9609 19.312 25.1463 19.312ZM25.5883 17.128C26.4203 17.128 27.1309 16.972 27.7203 16.66C28.3096 16.3307 28.7689 15.88 29.0983 15.308C29.4276 14.736 29.5923 14.086 29.5923 13.358V12.474L25.5363 13.254C24.7043 13.41 24.1149 13.6613 23.7683 14.008C23.4389 14.3373 23.2743 14.762 23.2743 15.282C23.2743 15.8713 23.4736 16.3307 23.8723 16.66C24.2883 16.972 24.8603 17.128 25.5883 17.128ZM35.8973 19V5.168H38.4193L38.5233 8.86L38.1853 8.678C38.3413 7.77667 38.6359 7.04867 39.0693 6.494C39.5026 5.93933 40.0313 5.532 40.6553 5.272C41.2793 4.99467 41.9553 4.856 42.6833 4.856C43.7233 4.856 44.5813 5.09 45.2573 5.558C45.9506 6.00867 46.4706 6.63267 46.8173 7.43C47.1813 8.21 47.3633 9.10267 47.3633 10.108V19H44.6073V10.94C44.6073 10.1253 44.5206 9.44067 44.3473 8.886C44.1739 8.33133 43.8879 7.90667 43.4893 7.612C43.0906 7.31733 42.5706 7.17 41.9293 7.17C40.9586 7.17 40.1699 7.49067 39.5633 8.132C38.9566 8.77333 38.6533 9.70933 38.6533 10.94V19H35.8973ZM51.0047 19V0.539999H53.7607V12.006L59.9747 5.168H63.4587L58.0507 10.992L63.6667 19H60.4947L56.2047 12.708L53.7607 15.308V19H51.0047Z" fill="#0C0A08"/>
<path d="M71.99 5.00994C75.8505 5.00444 78.9844 8.12953 78.9899 11.99C78.9954 15.8505 75.8704 18.9845 72.0099 18.99C68.1494 18.9955 65.0155 15.8704 65.01 12.0099C65.0045 8.14945 68.1295 5.01544 71.99 5.00994Z" fill="#0C0A08"/>
<path d="M66.018 18.9135L66.8701 16.0015L68.8691 17.8758L66.018 18.9135Z" fill="#0C0A08"/>
<path d="M73.045 9.55201L68.851 9.55798Z" fill="#E4F222"/>
<path d="M73.045 9.55201L68.851 9.55798" stroke="white" stroke-width="2" stroke-linecap="round" stroke-linejoin="round"/>
<path d="M75.4954 12.3444L68.8549 12.3539Z" fill="#E4F222"/>
<path d="M75.4954 12.3444L68.8549 12.3539" stroke="white" stroke-width="2" stroke-linecap="round" stroke-linejoin="round"/>
<path d="M70.9558 15.1472L68.8588 15.1501Z" fill="#E4F222"/>
<path d="M70.9558 15.1472L68.8588 15.1501" stroke="white" stroke-width="2" stroke-linecap="round" stroke-linejoin="round"/>
<path d="M71.99 5.00994C75.8505 5.00444 78.9844 8.12953 78.9899 11.99C78.9954 15.8505 75.8704 18.9845 72.0099 18.99C68.1494 18.9955 65.0155 15.8704 65.01 12.0099C65.0045 8.14945 68.1295 5.01544 71.99 5.00994Z" fill="#0C0A08"/>
<path d="M66.018 18.9135L66.8701 16.0015L68.8691 17.8758L66.018 18.9135Z" fill="#0C0A08"/>
<path d="M73.045 9.55201L68.851 9.55798Z" fill="#E4F222"/>
<path d="M73.045 9.55201L68.851 9.55798" stroke="white" stroke-width="1.5" stroke-linecap="round" stroke-linejoin="round"/>
<path d="M75.4954 12.3444L68.8549 12.3539Z" fill="#E4F222"/>
<path d="M75.4954 12.3444L68.8549 12.3539" stroke="white" stroke-width="1.5" stroke-linecap="round" stroke-linejoin="round"/>
<path d="M70.9558 15.1472L68.8588 15.1501Z" fill="#E4F222"/>
<path d="M70.9558 15.1472L68.8588 15.1501" stroke="white" stroke-width="1.5" stroke-linecap="round" stroke-linejoin="round"/>
</svg>
