<svg width="361" height="124" viewBox="0 0 361 124" fill="none" xmlns="http://www.w3.org/2000/svg">
<path d="M26.6977 41C26.6977 36.0667 27.931 32.3333 30.3977 29.8C32.8643 27.2667 36.6977 26 41.8977 26H57.2977V34.3H42.2977C40.2977 34.3 38.7643 34.9 37.6977 36.1C36.6977 37.2333 36.1977 38.9 36.1977 41.1V97H26.6977V41ZM10.8977 43.8H56.4977V52.1H10.8977V43.8ZM86.3586 43.8H93.6586L94.5586 57.2L93.7586 57.1C94.3586 52.6333 95.7586 49.3 97.9586 47.1C100.225 44.9 103.292 43.8 107.159 43.8H118.459V52.4H107.659C105.059 52.4 102.859 52.9 101.059 53.9C99.3253 54.8333 98.0253 56.2667 97.1586 58.2C96.2919 60.0667 95.8586 62.4 95.8586 65.2V97H86.3586V43.8ZM72.8586 88.7H112.459V97H72.8586V88.7ZM72.8586 43.8H91.4586V52.1H72.8586V43.8ZM147.02 98.2C143.686 98.2 140.653 97.6 137.92 96.4C135.253 95.2 133.12 93.4667 131.52 91.2C129.986 88.9333 129.22 86.3667 129.22 83.5C129.22 79.1 130.553 75.6333 133.22 73.1C135.953 70.5 140.153 68.6667 145.82 67.6L163.22 64C163.22 59.8 162.286 56.6667 160.42 54.6C158.553 52.5333 155.82 51.5 152.22 51.5C148.82 51.5 146.12 52.2333 144.12 53.7C142.186 55.1667 140.886 57.3667 140.22 60.3L130.22 59.6C131.22 54.4 133.653 50.2667 137.52 47.2C141.386 44.1333 146.286 42.6 152.22 42.6C158.753 42.6 163.786 44.5333 167.32 48.4C170.92 52.2 172.72 57.5333 172.72 64.4V85.4C172.72 86.6 172.953 87.4667 173.42 88C173.953 88.4667 174.82 88.7 176.02 88.7H179.22V97C178.02 97.2 176.486 97.3 174.62 97.3C170.953 97.3 168.186 96.4 166.32 94.6C164.52 92.7333 163.586 89.8333 163.52 85.9H165.12C164.52 89.4333 162.486 92.3667 159.02 94.7C155.62 97.0333 151.62 98.2 147.02 98.2ZM148.12 89.9C151.32 89.9 154.053 89.3333 156.32 88.2C158.586 87.0667 160.286 85.4667 161.42 83.4C162.62 81.3333 163.22 78.9 163.22 76.1V71.8L147.92 74.9C144.786 75.5 142.553 76.4333 141.22 77.7C139.886 78.9 139.22 80.5667 139.22 82.7C139.22 84.9667 139.986 86.7333 141.52 88C143.12 89.2667 145.32 89.9 148.12 89.9ZM193.38 43.8H202.08L202.48 57.7L201.38 56.9C202.247 52.1667 204.214 48.6 207.28 46.2C210.414 43.8 214.114 42.6 218.38 42.6C224.114 42.6 228.48 44.4667 231.48 48.2C234.48 51.8667 235.98 56.7 235.98 62.7V97H226.38V65.4C226.38 60.5333 225.547 56.9 223.88 54.5C222.28 52.1 219.647 50.9 215.98 50.9C212.114 50.9 208.98 52.2 206.58 54.8C204.18 57.3333 202.98 60.9333 202.98 65.6V97H193.38V43.8ZM252.441 26H261.941V70.9L286.441 43.8H298.741L277.841 66.4L299.741 97H288.141L271.441 72.9L261.941 83V97H252.441V26Z" fill="black"/>
<circle cx="333.5" cy="69.5" r="27.5" fill="black"/>
<rect x="313.305" y="60.3046" width="20.1667" height="20.1667" rx="2" fill="#BDBDBD"/>
<path d="M324.305 71.4714C324.305 70.3669 325.2 69.4714 326.305 69.4714H342.471C343.576 69.4714 344.471 70.3669 344.471 71.4714V87.6381C344.471 88.7427 343.576 89.6381 342.471 89.6381H326.305C325.2 89.6381 324.305 88.7427 324.305 87.6381V71.4714Z" fill="white"/>
<path d="M324.305 51.3047C324.305 50.2001 325.2 49.3047 326.305 49.3047H342.471C343.576 49.3047 344.471 50.2001 344.471 51.3047V67.4714C344.471 68.5759 343.576 69.4714 342.471 69.4714H326.305C325.2 69.4714 324.305 68.5759 324.305 67.4714V51.3047Z" fill="#7B7B7B"/>
<path d="M324.305 60.3046H331.471C332.576 60.3046 333.471 61.2 333.471 62.3046V69.4712H324.305V60.3046Z" fill="#BDBDBD"/>
<rect x="333.469" y="60.3046" width="20.1667" height="20.1667" rx="2" fill="#393939"/>
<path d="M333.469 60.3046H344.469V67.4712C344.469 68.5758 343.573 69.4712 342.469 69.4712H333.469V60.3046Z" fill="#7B7B7B"/>
</svg>
