<svg width="128" height="128" viewBox="0 0 128 128" fill="none" xmlns="http://www.w3.org/2000/svg">
<circle cx="64" cy="64" r="64" fill="#F3F4F6"/>
<rect x="14" y="39" width="50" height="50" rx="2" fill="#BDBDBD"/>
<path d="M39 66C39 64.8954 39.8954 64 41 64H87C88.1046 64 89 64.8954 89 66V112C89 113.105 88.1046 114 87 114H41C39.8954 114 39 113.105 39 112V66Z" fill="white"/>
<path d="M39 16C39 14.8954 39.8954 14 41 14H87C88.1046 14 89 14.8954 89 16V62C89 63.1046 88.1046 64 87 64H41C39.8954 64 39 63.1046 39 62V16Z" fill="#7B7B7B"/>
<path d="M14.2222 41.1113C14.2222 40.0068 15.1176 39.1113 16.2222 39.1113H61.9999C63.1045 39.1113 63.9999 40.0068 63.9999 41.1113V64.0002H14.2222V41.1113Z" fill="#BDBDBD"/>
<rect x="64" y="39" width="50" height="50" rx="2" fill="#393939"/>
<path d="M64 14.2222H86.8889C87.9935 14.2222 88.8889 15.1176 88.8889 16.2222V61.9999C88.8889 63.1045 87.9935 63.9999 86.8889 63.9999H64V14.2222Z" fill="#7B7B7B"/>
</svg>
