<svg width="33" height="33" viewBox="0 0 33 33" fill="none" xmlns="http://www.w3.org/2000/svg">
<path d="M15.9914 0.0227816C24.8232 0.0101999 31.993 7.15958 32.0055 15.9914C32.0181 24.8232 24.8687 31.993 16.0369 32.0055C7.20515 32.0181 0.0353629 24.8687 0.0227812 16.0369C0.0101995 7.20515 7.15958 0.0353633 15.9914 0.0227816Z" fill="#696867"/>
<path d="M2.32898 31.8305L4.27826 25.1686L8.85159 29.4566L2.32898 31.8305Z" fill="#696867"/>
<path d="M18.4049 10.4138L8.81006 10.4274Z" fill="#696867"/>
<path d="M18.4049 10.4138L8.81006 10.4274" stroke="white" stroke-width="3" stroke-linecap="round" stroke-linejoin="round"/>
<path d="M24.0107 16.8023L8.81885 16.824Z" fill="#696867"/>
<path d="M24.0107 16.8023L8.81885 16.824" stroke="white" stroke-width="3" stroke-linecap="round" stroke-linejoin="round"/>
<path d="M13.6255 23.2137L8.82812 23.2206Z" fill="#696867"/>
<path d="M13.6255 23.2137L8.82812 23.2206" stroke="white" stroke-width="3" stroke-linecap="round" stroke-linejoin="round"/>
</svg>
